<svg width="30" height="20" viewBox="0 0 30 20" fill="none" xmlns="http://www.w3.org/2000/svg">
<rect x="2.56897" y="1.75" width="24.8621" height="17" stroke="white"/>
<path d="M16.0627 9.58809C15.7861 9.77546 15.6113 9.89307 15.4692 9.96834C15.3379 10.0379 15.2763 10.0478 15.2339 10.0481C15.1915 10.0484 15.1298 10.0394 14.9975 9.97181C14.8543 9.89864 14.6777 9.78362 14.3984 9.60033L5.87029 4.0041C4.71715 3.2474 3.89502 2.70672 3.38145 2.26888C3.12477 2.05004 2.98158 1.88648 2.91142 1.76561C2.85109 1.66166 2.86256 1.62346 2.86734 1.60756L2.86755 1.60685L2.86776 1.60614C2.87249 1.59022 2.88386 1.55199 2.99133 1.49819C3.1163 1.43562 3.32575 1.37743 3.66042 1.3353C4.33 1.25099 5.314 1.25 6.69324 1.25L23.4819 1.25C24.8302 1.25 25.7905 1.25102 26.4445 1.33433C26.7712 1.37593 26.9751 1.43328 27.0966 1.49458C27.2019 1.54766 27.2136 1.58572 27.2189 1.60311L27.219 1.60333L27.219 1.60355C27.2244 1.62094 27.2361 1.65899 27.1787 1.76199C27.1124 1.88093 26.9758 2.04275 26.7287 2.26041C26.2339 2.69622 25.4395 3.23563 24.3233 3.99185L16.0627 9.58809Z" stroke="white"/>
</svg>
