<svg width="36" height="36" viewBox="0 0 36 36" fill="none" xmlns="http://www.w3.org/2000/svg">
<path d="M21.856 27.0883L24.5589 25.3119C24.7504 25.1868 24.9153 25.0251 25.0441 24.836C25.1729 24.647 25.2631 24.4343 25.3095 24.2103C25.4041 23.7538 25.3143 23.2876 25.0592 22.899L23.1481 19.9883C23.023 19.7968 22.8613 19.6319 22.6722 19.5031C22.4832 19.3743 22.2705 19.2841 22.0465 19.2377C21.59 19.1431 21.1238 19.2329 20.7352 19.4881L18.6068 20.8855C17.7828 20.2842 17.0743 19.539 16.5155 18.6856C15.9529 17.8333 15.5487 16.8866 15.3221 15.8908L17.4505 14.4934C17.642 14.3683 17.8069 14.2065 17.9357 14.0175C18.0645 13.8284 18.1547 13.6158 18.2011 13.3918C18.2957 12.9353 18.2059 12.4691 17.9508 12.0805L16.0423 9.16812C15.9169 8.97636 15.7548 8.81128 15.5654 8.68239C15.376 8.5535 15.163 8.46333 14.9386 8.41708C14.4821 8.32244 14.0158 8.41228 13.6272 8.66741L10.9274 10.44C10.3056 10.8465 9.86615 11.4948 9.71525 12.2227C9.68341 12.3762 9.6655 12.5261 9.66065 12.6765C9.53974 15.6091 10.465 18.7345 12.2621 21.4746C14.0576 24.2121 16.5559 26.301 19.302 27.364C20.1411 27.6872 21.095 27.5844 21.856 27.0883Z" fill="#F42F6F"/>
<rect x="34.5235" y="6.86062" width="28.7034" height="28.7031" rx="14.3516" transform="rotate(101.713 34.5235 6.86062)" stroke="#F42F6F"/>
</svg>
